<?xml version="1.0" encoding="utf-8"?>
<!-- Generator: Adobe Illustrator 14.0.0, SVG Export Plug-In . SVG Version: 6.00 Build 43363)  -->
<!DOCTYPE svg PUBLIC "-//W3C//DTD SVG 1.1//EN" "http://www.w3.org/Graphics/SVG/1.1/DTD/svg11.dtd">
<svg version="1.1" id="Layer_1" xmlns="http://www.w3.org/2000/svg" xmlns:xlink="http://www.w3.org/1999/xlink" x="0px" y="0px"
	 width="720px" height="334.739px" viewBox="0 0 720 334.739" enable-background="new 0 0 720 334.739" xml:space="preserve">
<path fill="#FFFFFF" d="M-238.982,141.459h-0.316c-0.513,0.966-1.004,1.959-1.499,2.948c0.048,0.104,0.084,0.211,0.137,0.314
	C-240.108,143.625-239.556,142.527-238.982,141.459z"/>
<rect x="-238.982" y="141.458" fill="#FFFFFF" width="0" height="0.001"/>
<path fill="#4B95E0" d="M346.171,305.243c-0.46,0.19-1.633,0.345-3.519,0.465l-2.91,0.184l-0.314-4.941l3.069-0.195
	c1.595-0.102,2.552-0.141,2.874-0.117c0.644,0.066,1.155,0.29,1.53,0.671c0.375,0.381,0.584,0.898,0.626,1.554
	c0.038,0.585-0.064,1.08-0.306,1.487C346.98,304.756,346.629,305.055,346.171,305.243z M320.049,308.748l3.224-7.001l2.084,7.439
	L320.049,308.748z M309.916,301.531c-0.121,0.564-0.372,1.028-0.753,1.391c-0.381,0.364-0.85,0.591-1.403,0.682
	c-0.555,0.092-1.592-0.024-3.111-0.348l-2.11-0.45l1.152-5.416l1.862,0.396c1.389,0.296,2.305,0.536,2.746,0.721
	c0.602,0.245,1.058,0.638,1.37,1.176S310.063,300.837,309.916,301.531z M309.669,299.682c0.312,0.538,0.394,1.155,0.247,1.85
	c-0.121,0.564-0.372,1.028-0.753,1.391c-0.381,0.364-0.85,0.591-1.403,0.682c-0.555,0.092-1.592-0.024-3.111-0.348l-2.11-0.45
	l1.152-5.416l1.862,0.396c1.389,0.296,2.305,0.536,2.746,0.721C308.901,298.751,309.357,299.144,309.669,299.682z M323.272,301.747
	l2.084,7.439l-5.308-0.438L323.272,301.747z M346.171,305.243c-0.46,0.19-1.633,0.345-3.519,0.465l-2.91,0.184l-0.314-4.941
	l3.069-0.195c1.595-0.102,2.552-0.141,2.874-0.117c0.644,0.066,1.155,0.29,1.53,0.671c0.375,0.381,0.584,0.898,0.626,1.554
	c0.038,0.585-0.064,1.08-0.306,1.487C346.98,304.756,346.629,305.055,346.171,305.243z M319.896,25.483
	c1.59-0.155,2.546-0.226,2.869-0.213c0.646,0.044,1.163,0.25,1.552,0.618c0.388,0.368,0.613,0.878,0.678,1.533
	c0.057,0.583-0.028,1.082-0.255,1.496c-0.227,0.416-0.567,0.725-1.02,0.929c-0.452,0.205-1.62,0.399-3.501,0.583l-2.902,0.283
	l-0.481-4.929L319.896,25.483z M320.218,30.428c1.881-0.183,3.049-0.378,3.501-0.583c0.453-0.205,0.793-0.514,1.02-0.929
	c0.227-0.414,0.312-0.913,0.255-1.496c-0.064-0.654-0.29-1.165-0.678-1.533c-0.389-0.368-0.905-0.574-1.552-0.618
	c-0.323-0.013-1.279,0.058-2.869,0.213l-3.061,0.299l0.481,4.929L320.218,30.428z M320.218,30.428
	c1.881-0.183,3.049-0.378,3.501-0.583c0.453-0.205,0.793-0.514,1.02-0.929c0.227-0.414,0.312-0.913,0.255-1.496
	c-0.064-0.654-0.29-1.165-0.678-1.533c-0.389-0.368-0.905-0.574-1.552-0.618c-0.323-0.013-1.279,0.058-2.869,0.213l-3.061,0.299
	l0.481,4.929L320.218,30.428z M366.071,29.464l1.012,7.659l-5.192-1.183L366.071,29.464z M278.802,36.091
	c1.486-0.608,2.509-0.958,3.065-1.052c0.742-0.131,1.421-0.077,2.036,0.161s1.198,0.68,1.75,1.327
	c0.551,0.647,1.113,1.669,1.684,3.066c0.57,1.396,0.898,2.55,0.982,3.46c0.084,0.91,0.003,1.622-0.242,2.134
	c-0.246,0.513-0.635,0.964-1.166,1.354c-0.405,0.299-1.117,0.658-2.136,1.074l-2.723,1.112l-4.89-11.967L278.802,36.091z
	 M412.198,83.192c-20.399-18.79-47.617-30.284-77.472-30.284c-30.027,0-57.385,11.628-77.823,30.611
	c-22.52,20.917-36.637,50.763-36.637,83.85c0,36.699,17.364,69.415,44.305,90.375c19.391,15.086,43.741,24.085,70.155,24.085
	c26.38,0,50.7-8.976,70.078-24.025c26.983-20.958,44.382-53.701,44.382-90.435C449.187,134.111,434.924,104.125,412.198,83.192z
	 M399.006,257.801c-18.149,12.938-40.341,20.557-64.279,20.557c-23.971,0-46.189-7.641-64.353-20.611
	c-28.211-20.144-46.636-53.148-46.636-90.377c0-33.45,14.874-63.491,38.354-83.856c19.481-16.896,44.884-27.133,72.634-27.133
	c27.553,0,52.79,10.095,72.216,26.778c23.72,20.372,38.772,50.565,38.772,84.211C445.715,204.63,427.258,237.661,399.006,257.801z
	 M479.337,83.192C450.285,33.477,396.346,0,334.727,0c-61.875,0-116.012,33.752-144.976,83.81c-5.106,0.04-10.2,0.083-15.269,0.132
	c-2.125,5.321,4.259,7.805,3.373,13.119c-40.021,0.873-81.463,0.126-121.817,0.375c-1.783,4.526-1.996,10.624-1.875,17.055
	c-1.984-1.339-4.497-0.075-5.433,1.312c0.083,2.04,1.216,3.03,1.687,4.685c1.958,1.14,4.735,5.082,2.061,6.935
	c-1.486-0.41-0.827-1.397-2.438-1.499c-1.02-0.065-3.222,1.133-4.123,2.249c-2.094,2.597-0.137,6.281,1.313,8.621
	c0.785,0.437,1.933,1.177,2.81,2.25c0.606,0.736,1.866,2.629,1.875,3.373c0.006,0.538-0.903,2.723-1.688,2.811
	c-1.159,0.132-1.846-2.022-2.437-2.811c-1.059-1.416-2.135-2.403-3.936-2.624c-1.132,1.677-1.092,4.53-1.687,6.747
	c-0.54,1.306-2.124,2.254-2.623,3.748c-1.073,3.207,0.975,6.753,1.687,9.371c0.866,1.072,2.308,2.562,2.249,3.936
	c-0.999-0.69-1.761-0.47-2.625-1.312c-0.718-0.7-0.698-2.023-1.685-2.249c-2.491-0.568-3.845,3.694-5.249,4.311
	c-0.664,3.52,3.233,4.115,2.248,6.747c-1.718,1.145-3.3-0.305-4.871-0.187c-1.043,0.078-2.348,0.891-3.375,1.499
	c-3.098,1.84-5.822,4.706-7.684,7.122c-0.15,1.525,0.132,2.619,0.376,3.749c0.948,0.75,1.124,1.91,1.873,2.811
	c1.03,1.24,3.015,1.649,3.562,3.373c-0.649,3.115-2.242,5.287-4.497,7.871c-1.522,1.743-3.942,4.742-5.623,4.498
	c-1.266-0.184-1.115-1.63-2.25-1.875c-1.395-0.206-3.794,0.199-4.497,1.312c-0.651,4.588,4.641,4.853,3.935,10.12
	c-0.782,0.716-1.267,1.731-2.248,2.248c-2.772,0.398-3.981-0.764-5.81-1.311c-2.407,1.24-4.871,2.991-4.124,6.185
	c0.448,1.913,1,2.758,1.875,4.31c2.232,3.966,6.121,5.786,5.434,11.809c-0.348,0.853-1.926,1.297-2.249,2.436
	c-0.439,1.543,0.334,2.8,0.75,4.122c2.29,1.994,5.732-0.9,7.497-0.561c0.969,0.186,2.156,2.037,2.248,2.998
	c0.088,0.904-0.964,3.958-1.31,4.496c-0.396,0.619-1.257,1.028-1.687,1.688c-0.713,1.087-1.113,2.514-1.5,3.748
	c-0.397,1.265-0.962,2.725-0.562,3.935c60.342,0.121,121.298,0.183,182.451,0.223c29.804,46.304,81.799,77.033,140.839,77.033
	c58.979,0,110.927-30.668,140.744-76.89c4.37,0.003,8.746,0.006,13.111,0.01c1.158-10.897,3.462-20.651,8.058-28.111
	c2.392-1.994,5.285,0.064,8.06,0.373c1.483,1.702,2.893,3.479,4.496,5.06c2.553-1.945,3.509-5.485,4.686-8.807
	c1.271-1.48,3.589-1.91,4.124-4.124c-0.422-1.452-2.436-1.313-3.188-2.436c-0.559-4.184,2.887-4.36,5.062-5.81
	c0.701-1.488,1.743-2.624,2.623-4.124c0.834-1.42,1.431-3.248,2.436-4.498c0.767-0.951,1.893-1.3,2.998-1.874
	c1.521-0.788,3.836-1.728,5.248-2.811c0.26-0.2,0.542-0.22,0.752-0.375c1.232-0.923,2.682-2.639,3.936-2.811
	c1.979-0.272,3.637,1.327,5.436,1.499c1.086,0.104,2.708-0.285,3.557-0.562c3.369-1.096,5.876-3.945,9.748-4.123
	c1.319,1.093,2.409,2.714,4.874,2.248c0.97-0.183,1.64-1.386,2.622-1.873c0.716-0.356,1.581-0.48,2.062-0.75
	c1.68-0.941,2.494-2.831,3.374-4.684c1.522-3.218,2.631-6.541,5.061-8.247c4.069,0.011,6.45-1.67,9.931-2.249
	c6.557-3.94,13.396-7.596,22.303-9.184c0.93-0.82,2.458-1.041,3.373-1.874c0.59-3.595,1.204-7.167,1.5-11.057
	c2.248-0.189,3.589-1.688,5.247-2.249c0.708-0.239,1.35-0.021,2.063-0.375c3.799-1.882,4.365-8.187,11.432-6.56
	c1.791-0.402,2.59-2.833,4.498-2.624c1.222,0.133,2.13,2.079,2.811,3.373c1.066,2.031,1.552,4.011,2.812,5.06
	c2.256,1.88,4.402-0.646,5.621-2.061c0.682-0.789,1.124-1.984,1.876-2.437c0.995-0.599,2.534-0.146,3.747-0.937
	c0.453-0.296,0.715-0.8,1.124-1.312c0.368-0.458,0.875-0.916,1.126-1.313c0.823-1.311,0.801-3.125,1.685-4.498
	c0.924-1.432,2.516-1.825,3.563-3.374c3.17,0.166,3.642-3.198,5.809-3.56c4.321-0.722,6.668,7.21,12.93,5.435
	c1.49-0.343,3.2-3.107,4.5-3.186c1.219-0.075,1.469,1.588,3.185,0.937c0.852-0.773,2.025-1.224,2.626-2.25
	c-0.411-1.25-0.488-4.97-0.375-7.121c0.471-0.112,1.586,0.02,2.25-0.375c-1.023-2.911,0.198-6.614,1.123-8.808
	c1.739-0.642,3.25-1.64,4.873-2.624c1.395-0.844,3.153-2.627,5.246-1.5c0.568,0.644,0.482,0.675,0.186,1.5
	c0.033,0.782,0.951,0.675,0.94,1.499c3.745,0.31,3.969-2.903,5.997-4.31c0.125-5.56-0.249-11.62,0.188-16.868
	c0.014-0.984,1.857-0.14,1.872-1.124c0.013-3.235,1.084-5.415,3.938-5.809c0.911-2.336,3.106-3.391,3.748-5.998
	C639.079,83.192,559.035,83.192,479.337,83.192z M471.318,257.846c-29.386,44.215-79.639,73.422-136.592,73.422
	c-57.012,0-107.31-29.268-136.681-73.559c-17.188-25.919-27.216-56.978-27.216-90.34c0-30.512,8.391-59.099,22.972-83.588
	c28.606-48.045,81.065-80.309,140.926-80.309c59.617,0,111.896,32,140.577,79.721c14.798,24.62,23.321,53.42,23.321,84.177
	C498.625,200.79,488.562,231.899,471.318,257.846z M334.727,8.49c-57.057,0-107.082,30.083-135.1,75.249
	c-15.07,24.292-23.78,52.942-23.78,83.63c0,33.565,10.418,64.691,28.183,90.344c28.677,41.407,76.516,68.534,130.697,68.534
	c54.127,0,101.922-27.071,130.607-68.406c17.819-25.676,28.271-56.85,28.271-90.472c0-30.919-8.841-59.769-24.119-84.177
	C441.405,38.331,391.556,8.49,334.727,8.49z M405.71,54.843l3.329,1.939c-0.566,1.179-0.739,2.22-0.519,3.122
	c0.219,0.902,0.814,1.705,1.786,2.405c1.029,0.742,1.963,1.083,2.799,1.024s1.464-0.38,1.884-0.964
	c0.271-0.374,0.391-0.772,0.36-1.193c-0.03-0.421-0.25-0.926-0.656-1.515c-0.281-0.399-0.969-1.245-2.062-2.536
	c-1.407-1.66-2.234-3.049-2.479-4.167c-0.344-1.572-0.064-2.984,0.838-4.237c0.582-0.806,1.354-1.396,2.317-1.769
	c0.963-0.373,2.008-0.432,3.133-0.179c1.124,0.253,2.295,0.818,3.513,1.695c1.987,1.433,3.168,2.946,3.546,4.542
	c0.376,1.595,0.065,3.139-0.933,4.629l-3.298-2.164c0.449-0.913,0.578-1.709,0.385-2.39c-0.192-0.681-0.739-1.345-1.64-1.994
	c-0.929-0.669-1.795-1.003-2.595-1c-0.516,0-0.92,0.206-1.215,0.617c-0.271,0.375-0.344,0.809-0.219,1.304
	c0.159,0.629,0.885,1.688,2.175,3.176c1.291,1.488,2.167,2.698,2.63,3.627c0.462,0.929,0.658,1.886,0.59,2.87
	c-0.07,0.984-0.464,1.977-1.187,2.978c-0.652,0.907-1.518,1.575-2.593,2.004c-1.075,0.429-2.212,0.504-3.411,0.225
	c-1.2-0.28-2.487-0.915-3.862-1.906c-2.001-1.443-3.205-3.014-3.611-4.712S404.642,56.765,405.71,54.843z M397.957,35.825
	l3.475,1.86l-7.586,14.167l8.639,4.625l-1.552,2.899l-12.113-6.485L397.957,35.825z M380.775,28.867l3.683,1.402l-5.719,15.018
	l9.156,3.487l-1.171,3.073l-12.84-4.89L380.775,28.867z M369.16,25.498l3.28,20.767l-4.179-0.953l-0.677-4.701l-7.606-1.734
	l-2.556,3.964l-4.076-0.929l11.75-17.34L369.16,25.498z M342.705,21.499l13.318,1.295l-0.32,3.286l-9.395-0.914l-0.447,4.598
	l8.109,0.789l-0.318,3.286l-8.111-0.788l-0.803,8.255l-3.922-0.381L342.705,21.499z M320.848,22.073
	c2.076-0.203,3.601-0.175,4.576,0.082c0.975,0.257,1.788,0.804,2.441,1.641c0.652,0.837,1.034,1.831,1.146,2.979
	c0.142,1.458-0.169,2.703-0.932,3.736c-0.765,1.033-1.987,1.757-3.669,2.17c0.896,0.413,1.65,0.887,2.261,1.426
	c0.609,0.538,1.457,1.517,2.54,2.936l2.742,3.558l-4.691,0.458l-3.248-3.951c-1.155-1.412-1.937-2.297-2.346-2.654
	c-0.41-0.356-0.83-0.588-1.259-0.693c-0.429-0.105-1.094-0.114-1.996-0.025l-0.794,0.077l0.791,8.109l-3.923,0.383l-1.895-19.426
	L320.848,22.073z M306.757,23.913l0.792,3.206l-10.223,2.527l1.039,4.2l9.513-2.351l0.789,3.192l-9.513,2.351l1.275,5.157
	l10.585-2.616l0.789,3.192l-14.412,3.562l-4.683-18.948L306.757,23.913z M278.933,32.47c1.502-0.614,2.696-0.967,3.58-1.06
	c1.187-0.121,2.321,0.063,3.403,0.551c1.082,0.488,2.055,1.229,2.922,2.222c0.866,0.993,1.644,2.336,2.335,4.029
	c0.608,1.487,0.947,2.845,1.018,4.072c0.084,1.5-0.126,2.827-0.63,3.983c-0.382,0.874-1.041,1.704-1.975,2.488
	c-0.702,0.584-1.726,1.151-3.074,1.702l-6.865,2.805l-7.381-18.068L278.933,32.47z M267.604,37.728l9.226,17.2l-3.473,1.863
	l-9.226-17.2L267.604,37.728z M249.172,51.89c0.378-2.429,1.699-4.411,3.961-5.947c1.975-1.341,3.977-1.847,6.003-1.517
	c1.202,0.192,2.426,0.809,3.671,1.852l-2.705,2.962c-0.759-0.708-1.606-1.098-2.541-1.171c-0.935-0.073-1.835,0.185-2.702,0.773
	c-1.196,0.812-1.877,1.901-2.039,3.266c-0.162,1.365,0.41,3.01,1.717,4.934c1.385,2.042,2.74,3.247,4.062,3.615
	c1.322,0.368,2.571,0.153,3.746-0.645c0.867-0.588,1.425-1.369,1.676-2.344c0.25-0.974,0.109-2.145-0.421-3.512l3.842-1.144
	c0.712,2.092,0.794,3.948,0.247,5.569c-0.546,1.62-1.686,3.019-3.418,4.195c-2.145,1.456-4.405,1.919-6.779,1.392
	c-2.375-0.528-4.426-2.062-6.151-4.603C249.518,56.878,248.794,54.319,249.172,51.89z M310.609,306.681
	c-0.752,0.316-1.483,0.478-2.191,0.48c-0.96-0.014-2.311-0.206-4.057-0.577l-2.514-0.535l-1.532,7.2l-3.854-0.82l4.063-19.089
	l6.186,1.316c2.344,0.498,3.851,0.918,4.522,1.261c1.033,0.52,1.816,1.338,2.351,2.453c0.533,1.116,0.639,2.434,0.315,3.954
	c-0.25,1.172-0.671,2.112-1.267,2.819C312.036,305.853,311.362,306.364,310.609,306.681z M327.679,317.127l-1.333-4.559
	l-7.775-0.643l-1.971,4.285l-4.167-0.344l9.184-18.826l4.153,0.345l6.182,20.094L327.679,317.127z M349.332,316.569l-3.113-4.059
	c-1.106-1.45-1.857-2.36-2.255-2.731c-0.396-0.37-0.808-0.616-1.234-0.734c-0.425-0.12-1.089-0.151-1.993-0.094l-0.797,0.051
	l0.517,8.132l-3.933,0.249l-1.239-19.479l8.278-0.526c2.082-0.133,3.605-0.054,4.571,0.236c0.965,0.29,1.76,0.864,2.384,1.724
	c0.624,0.858,0.973,1.863,1.045,3.015c0.093,1.461-0.259,2.697-1.058,3.702c-0.799,1.008-2.046,1.689-3.739,2.045
	c0.882,0.443,1.618,0.942,2.209,1.501s1.404,1.565,2.439,3.021l2.621,3.648L349.332,316.569z M370.855,312.878l-7.166-7.832
	l-2.44,3.859l1.236,5.767l-3.854,0.826l-4.092-19.084l3.854-0.826l1.817,8.474l5.968-10.143l5.181-1.111l-5.592,8.975l10.074,10.027
	L370.855,312.878z M413.675,257.809c-21.105,18.438-48.72,29.612-78.948,29.612c-30.264,0-57.908-11.202-79.024-29.68
	c-25.145-22.006-41.029-54.332-41.029-90.372c0-32.621,13.017-62.196,34.132-83.834c21.802-22.341,52.239-36.218,85.92-36.218
	c33.511,0,63.81,13.735,85.588,35.876c21.312,21.667,34.465,51.384,34.465,84.177C454.779,203.447,438.864,235.802,413.675,257.809z
	 M284.775,47.615c1.019-0.416,1.731-0.775,2.136-1.074c0.531-0.39,0.92-0.841,1.166-1.354c0.246-0.513,0.327-1.224,0.242-2.134
	c-0.084-0.91-0.412-2.063-0.982-3.46c-0.571-1.397-1.132-2.419-1.684-3.066c-0.553-0.647-1.136-1.089-1.75-1.327
	s-1.294-0.292-2.036-0.161c-0.556,0.093-1.579,0.443-3.065,1.052l-1.64,0.669l4.89,11.967L284.775,47.615z M284.775,47.615
	c1.019-0.416,1.731-0.775,2.136-1.074c0.531-0.39,0.92-0.841,1.166-1.354c0.246-0.513,0.327-1.224,0.242-2.134
	c-0.084-0.91-0.412-2.063-0.982-3.46c-0.571-1.397-1.132-2.419-1.684-3.066c-0.553-0.647-1.136-1.089-1.75-1.327
	s-1.294-0.292-2.036-0.161c-0.556,0.093-1.579,0.443-3.065,1.052l-1.64,0.669l4.89,11.967L284.775,47.615z M366.071,29.464
	l-4.181,6.476l5.192,1.183L366.071,29.464z M361.891,35.94l5.192,1.183l-1.012-7.659"/>
<g>
	<path fill="#FFFFFF" d="M403.924,129.453c9.255-5.753,23.513-13.758,44.026-13.507c20.51,0.249,33.518,24.263,34.268,29.016
		c0.753,4.752-0.75,94.804,0,104.809c0.753,10.007,5.752,26.769,25.266,23.265c19.511-3.501,23.012,15.007,4.003,23.014
		c0,0-9.23,9.164-13.009,10.505c0,0-7.753,15.01-27.766,12.507c-20.013-2.5-35.52-26.014-35.771-54.28
		c-0.25-28.266-0.498-115.816-0.498-115.816L403.924,129.453z"/>
	<path fill="#4B95E0" d="M287.769,121.475c9.834-9.835,20.134-18.76,30.607-26.587c-3.126-6.256-4.944-11.819-5-16.22
		c-12.091,7.554-23.921,16.895-34.97,27.942c-0.07,0.07-0.135,0.141-0.205,0.209c-0.068,0.07-0.139,0.135-0.209,0.206
		c-12.725,12.724-23.207,26.489-31.279,40.493l0.058,0.06c-0.121,0.125-0.225,0.272-0.326,0.419
		c-0.11,0.192-0.215,0.385-0.323,0.577c-1.357,3.001,0.22,9.439,4.849,18.258C260.882,151.324,273.344,135.899,287.769,121.475z
		 M247.935,171.726c-3.013-5.359-5.215-10.32-6.351-14.626c-3.774,7.622-6.833,15.259-9.142,22.789l0.225,0.224
		c-2.692,2.694-1.594,8.742,2.416,16.7c1.355-3.251,2.851-6.528,4.467-9.816C242.041,181.929,244.852,176.829,247.935,171.726z
		 M316.66,264.103c-3.293,1.616-6.568,3.112-9.819,4.466c7.957,4.012,14.008,5.109,16.701,2.418l0.225,0.224
		c7.526-2.306,15.165-5.368,22.787-9.142c-4.303-1.139-9.267-3.338-14.627-6.352C326.823,258.798,321.723,261.609,316.66,264.103z
		 M300.53,232.854c-5.242-4.545-10.435-9.38-15.391-14.341c-4.959-4.957-9.793-10.145-14.341-15.39
		c-2.298,2.924-4.494,5.789-6.56,8.563c-3.433,4.619-6.543,9.022-9.307,13.168c3.541,4.07,7.393,8.214,11.524,12.344
		c4.131,4.128,8.275,7.985,12.342,11.525c4.149-2.767,8.552-5.877,13.169-9.311C294.743,237.352,297.605,235.151,300.53,232.854z
		 M327.026,252.808c-7.363-4.599-15.284-10.489-23.167-17.112c-2.97,2.358-5.91,4.64-8.8,6.811c-4.389,3.3-8.671,6.371-12.796,9.165
		c6.738,5.616,13.188,10.286,18.955,13.768c3.857-1.488,7.764-3.206,11.687-5.088C317.586,258.106,322.301,255.573,327.026,252.808z
		 M267.958,199.795c-6.623-7.885-12.512-15.805-17.111-23.165c-2.769,4.722-5.299,9.438-7.547,14.118
		c-1.881,3.925-3.596,7.83-5.087,11.69c3.483,5.765,8.151,12.216,13.769,18.952c2.793-4.126,5.868-8.408,9.166-12.797
		C263.319,205.705,265.6,202.765,267.958,199.795z M349.789,75.017c-2.065-5.09-2.809-9.44-1.792-12.611
		c0.036-0.112,0.084-0.212,0.124-0.319c-9.564,3.181-19.276,7.572-28.879,13.075c-1.913,2.361-0.876,8.292,3.234,16.727
		C331.542,85.39,340.708,79.722,349.789,75.017z M424.072,151.761c-6.598-3.368-14.088-8.49-21.729-14.645
		c-6.218,7.861-13.059,15.967-20.275,24.08c9.466,7.778,18.039,13.635,25.219,17.634
		C413.768,169.842,419.406,160.756,424.072,151.761z M324.822,96.366c3.998,7.181,9.857,15.752,17.635,25.22
		c8.113-7.22,16.221-14.056,24.082-20.279c-6.156-7.638-11.278-15.128-14.647-21.728C342.897,84.249,333.812,89.887,324.822,96.366z
		 M369.26,104.621c-7.594,5.975-15.666,12.736-24.074,20.221c4.744,5.582,10.116,11.433,16.154,17.471
		c6.037,6.038,11.89,11.413,17.473,16.159c7.485-8.411,14.244-16.484,20.22-24.08c-5.236-4.396-10.49-9.223-15.519-14.251
		C378.486,115.111,373.659,109.859,369.26,104.621z M424.693,116.9c-4.886-6.237-10.838-13.01-17.884-20.056
		c-26.656-26.656-49.519-37.818-53.547-33.79c-1.339,1.338-0.99,4.763,1.033,9.705c0.573,1.398,1.282,2.919,2.124,4.548
		c2.988,5.777,7.674,12.93,14.071,20.909c0.877,1.094,1.786,2.204,2.73,3.329c4.025,4.801,8.629,9.855,13.831,15.059
		c4.655,4.654,9.18,8.801,13.52,12.511l0.239-0.205C401.318,128.478,410.046,121.172,424.693,116.9z M426.348,147.234
		c0.775,0.4,1.524,0.768,2.25,1.108l-13.168-7.749C419.431,143.334,423.112,145.561,426.348,147.234z M428.638,153.864
		c-4.705,9.082-10.373,18.247-16.875,27.314c8.44,4.111,14.37,5.147,16.727,3.231c1.257-2.188,2.446-4.385,3.585-6.581
		l-0.122-22.784C430.887,154.717,429.784,154.33,428.638,153.864z M382.181,215.885c-14.426,14.425-29.851,26.887-45.36,36.798
		c8.834,4.634,15.277,6.21,18.273,4.84c0.183-0.103,0.37-0.204,0.555-0.313c0.152-0.102,0.299-0.205,0.423-0.329l0.063,0.062
		c14.003-8.073,27.768-18.554,40.494-31.278c0.069-0.07,0.134-0.142,0.204-0.212c0.069-0.069,0.142-0.135,0.211-0.203
		c11.047-11.048,20.389-22.879,27.941-34.971c-4.398-0.059-9.963-1.873-16.219-4.999
		C400.938,195.75,392.014,206.052,382.181,215.885z M523.217,273.836c-3.604-3.854-9.172-5.06-15.28-3.296
		c-5.303,1.528-11.829,0.086-16.635-3.677c-5.099-3.991-7.762-10.027-7.494-16.994c0.658-17.165,1.342-95.251-0.019-104.791
		c-1.573-11.023-17.155-31.222-37.923-31.222c-0.027,0-0.057,0-0.083,0c-7.943,0.021-15.022,1.271-21.09,3.043
		c0.915,1.171,1.804,2.327,2.645,3.458c5.418-1.466,11.601-2.481,18.456-2.5c0.025,0,0.051,0,0.075,0
		c19.482,0,32.807,19.709,33.96,27.786c1.297,9.097,0.618,87.369-0.021,104.072c-0.314,8.283,2.891,15.497,9.028,20.3
		c5.87,4.594,13.612,6.27,20.207,4.368c4.611-1.327,8.707-0.531,11.248,2.185c2.02,2.161,2.658,5.21,1.66,7.949
		c-1.41,3.88-5.55,6.938-8.628,8.755c0.408-3.39-0.688-6.836-3.114-9.43c-3.601-3.858-9.172-5.06-15.281-3.301
		c-5.301,1.529-11.828,0.086-16.633-3.672c-5.101-3.991-7.761-10.028-7.492-16.996c0.202-5.317,0.402-14.307,0.551-24.667
		l-4.001-0.056c-0.147,10.329-0.349,19.285-0.552,24.57c-0.316,8.285,2.889,15.495,9.027,20.304
		c5.87,4.594,13.614,6.267,20.21,4.365c4.608-1.331,8.706-0.535,11.246,2.183c2.021,2.164,2.657,5.212,1.661,7.95
		c-1.399,3.847-5.484,6.889-8.554,8.71c0.087-3.041-1.016-6.059-3.189-8.385c-3.602-3.857-9.172-5.06-15.281-3.299
		c-5.3,1.526-11.828,0.091-16.633-3.673c-5.098-3.993-7.761-10.03-7.492-16.996c0.2-5.316,0.401-14.308,0.55-24.67l-4.003-0.055
		c-0.146,10.328-0.346,19.284-0.548,24.571c-0.316,8.286,2.888,15.495,9.025,20.303c5.869,4.592,13.616,6.268,20.209,4.366
		c4.607-1.332,8.71-0.535,11.247,2.185c2.019,2.164,2.656,5.21,1.659,7.949c-2.331,6.411-12.133,10.585-12.23,10.629
		c-9.316,3.888-20.756-0.996-28.355-6.861c-8.35-6.448-19.39-19.624-18.898-59.515l-0.42-80.13
		c-1.228,2.726-2.551,5.453-3.957,8.175l0.374,71.938c-0.513,41.646,11.429,55.728,20.456,62.698
		c3.229,2.493,12.836,9.13,23.44,9.13c2.932,0,5.935-0.507,8.904-1.745c0.436-0.181,10.034-4.257,13.728-11.325
		c2.2-1.023,8.799-4.419,12.265-9.738l0.02,0.053c0.472-0.196,11.519-4.882,14.454-12.952
		C527.227,281.724,526.271,277.104,523.217,273.836z M435.935,150.95c-1.431-0.28-3.115-0.806-5.042-1.593
		c-0.729-0.299-1.498-0.641-2.295-1.015l3.33,1.96l0.024,4.742c1.417,0.433,2.754,0.738,4.008,0.903L435.935,150.95z
		 M435.96,155.948c-1.254-0.166-2.591-0.471-4.008-0.903l0.122,22.784c1.406-2.722,2.729-5.45,3.957-8.175L435.96,155.948z
		 M435.935,150.95l-0.017-2.941l-30.204-17.776c3.562-2.474,11.124-7.034,21.624-9.875c-0.841-1.131-1.729-2.287-2.645-3.458
		c-14.647,4.272-23.375,11.578-23.883,12.01l-0.239,0.205c0.512,0.438,1.031,0.895,1.541,1.319c1.122,0.942,2.233,1.851,3.326,2.729
		c3.512,2.815,6.85,5.277,9.991,7.431l13.168,7.749c0.797,0.375,1.565,0.716,2.295,1.015
		C432.819,150.144,434.504,150.67,435.935,150.95z M326.202,174.357c0.396-0.79,0.588-1.528,0.567-2.215
		c-0.02-0.685-0.241-1.358-0.667-2.017c-0.31-0.497-1.061-1.337-2.243-2.518l-1.302-1.304l-9.515,9.516l2.166,2.164
		c0.81,0.812,1.439,1.351,1.893,1.618c0.587,0.354,1.175,0.544,1.768,0.574c0.591,0.028,1.305-0.18,2.145-0.628
		c0.839-0.447,1.814-1.226,2.927-2.336C325.05,176.098,325.804,175.147,326.202,174.357z M352.717,196.464l-2.263-2.262
		l-3.646,3.645l2.149,2.146c1.391,1.39,2.318,2.201,2.779,2.429c0.466,0.229,0.938,0.298,1.423,0.206
		c0.483-0.09,0.939-0.353,1.372-0.783c0.486-0.484,0.743-1.003,0.783-1.557c0.04-0.556-0.137-1.107-0.529-1.657
		C354.584,198.362,353.894,197.641,352.717,196.464z M404.298,182.892c-7.569,10.067-16.178,19.977-25.657,29.456
		c-14.888,14.891-30.834,27.617-46.794,37.547c-7-4.159-15.145-9.93-24.041-17.366c9.175-7.437,18.615-15.65,27.962-24.257
		l-3.002-3.003c-9.888,9.114-19.381,17.287-28.28,24.442c-5.076-4.39-10.368-9.292-15.809-14.733
		c-5.439-5.44-10.344-10.73-14.733-15.808c7.152-8.898,15.328-18.392,24.441-28.279l-3.002-3.003
		c-8.607,9.345-16.818,18.786-24.26,27.962c-7.435-8.895-13.204-17.043-17.362-24.041c9.926-15.959,22.656-31.905,37.545-46.796
		c9.479-9.48,19.388-18.086,29.457-25.653c4.493,7.935,10.757,16.725,18.002,25.539c-8.245,7.449-16.456,15.253-24.388,23.185
		c-0.158,0.156-0.313,0.318-0.472,0.477l3.018,3.016c0.158-0.157,0.313-0.316,0.472-0.475c8.233-8.233,16.296-15.891,24.092-22.943
		c5.112,6.024,10.633,12.012,16.317,17.693c5.682,5.683,11.668,11.207,17.692,16.316c-7.053,7.796-14.71,15.858-22.942,24.092
		c-0.159,0.159-0.316,0.313-0.476,0.472l3.019,3.018c0.157-0.158,0.318-0.313,0.475-0.472c7.933-7.93,15.736-16.144,23.185-24.387
		C387.571,172.133,396.361,178.396,404.298,182.892z M304.056,162.893l-1.92-3.703c-1.292,0.81-2.463,1.181-3.507,1.116
		c-1.046-0.064-1.954-0.483-2.723-1.255c-1.048-1.045-1.51-2.28-1.393-3.703c0.116-1.425,1.083-3.045,2.901-4.86
		c1.71-1.711,3.279-2.618,4.707-2.721c1.428-0.101,2.675,0.382,3.738,1.448c0.771,0.77,1.209,1.64,1.319,2.61
		c0.106,0.969-0.126,1.912-0.7,2.828l3.557,2.185c0.823-1.477,1.213-2.848,1.175-4.117c-0.059-2.135-0.967-4.084-2.722-5.84
		c-2.014-2.011-4.3-2.974-6.855-2.886c-2.559,0.089-5.034,1.329-7.425,3.719c-2.261,2.26-3.427,4.657-3.503,7.188
		c-0.075,2.532,0.842,4.75,2.75,6.658c1.54,1.542,3.195,2.434,4.958,2.675C300.177,164.477,302.057,164.029,304.056,162.893z
		 M304.968,172.585l14.365-14.365l-2.901-2.902l-14.365,14.365L304.968,172.585z M319.234,183.952c1.314,0.019,2.673-0.314,4.076-1
		c1.151-0.562,2.317-1.434,3.5-2.617c1.345-1.346,2.321-2.634,2.923-3.865c0.606-1.231,0.925-2.463,0.956-3.7
		c0.032-1.234-0.248-2.397-0.84-3.488c-0.447-0.811-1.267-1.812-2.461-3.009l-5.301-5.3l-14.366,14.366l5.458,5.457
		c1.074,1.072,2.03,1.826,2.873,2.264C317.182,183.641,318.24,183.938,319.234,183.952z M335.569,198.346l-8.024-8.024l3.909-3.91
		l7.212,7.212l2.422-2.421l-7.211-7.212l3.184-3.184l7.75,7.75l2.431-2.43l-10.652-10.65l-14.364,14.366l10.924,10.924
		L335.569,198.346z M359.047,198.708c-0.437-0.956-1.424-2.198-2.957-3.733l-6.108-6.104l-14.365,14.364l2.902,2.901l5.997-5.999
		l0.586,0.589c0.667,0.667,1.102,1.207,1.299,1.622c0.2,0.414,0.291,0.904,0.274,1.47c-0.017,0.566-0.211,1.777-0.583,3.641
		l-1.028,5.223l3.467,3.468l1.049-4.557c0.424-1.811,0.652-3.138,0.682-3.982c0.028-0.846-0.087-1.767-0.35-2.759
		c1.443,1.079,2.835,1.582,4.17,1.515c1.336-0.069,2.544-0.642,3.623-1.72c0.847-0.848,1.394-1.814,1.636-2.89
		C359.584,200.677,359.485,199.661,359.047,198.708z"/>
</g>
</svg>
